<?xml version="1.0" encoding="utf-8"?>
<!-- Generator: Adobe Illustrator 15.0.0, SVG Export Plug-In . SVG Version: 6.00 Build 0)  -->
<!DOCTYPE svg PUBLIC "-//W3C//DTD SVG 1.1//EN" "http://www.w3.org/Graphics/SVG/1.1/DTD/svg11.dtd">
<svg version="1.1" id="Calque_1" xmlns="http://www.w3.org/2000/svg" xmlns:xlink="http://www.w3.org/1999/xlink" x="0px" y="0px"
	 width="750px" height="1000px" viewBox="0 0 750 1000" enable-background="new 0 0 750 1000" xml:space="preserve">
<g>
	<path fill-rule="evenodd" clip-rule="evenodd" fill="#84464D" d="M183.334,102.499c0.402,0.909,0.307,2.315,0.302,3.631
		c2.317,0.305,2.433,2.811,3.328,4.538c1.38-1.04,2.488-2.352,3.025-4.235c4.656-1.095,7.623,1.171,11.797,0.303
		c3.568,3.289,4.854,8.859,9.378,11.192c0.604,2.421,0.323,5.728,2.117,6.958c1.636,0.215,2.455-1.97,3.631-1.21
		c1.4,0.313,0.748,2.68,0.907,4.235c1.419,1.708,4.087,2.165,5.445,3.933c0.352,2.333-1.348,4.009-0.907,5.446
		c2.494,0.631,4.049,2.202,6.655,2.722c2.866,3.878,1.747,9.062-1.512,11.495c0.524,1.492,1.914,2.119,3.025,3.025
		c1.053,7.317-4.571,10.271-8.772,13.311c0.521,0.991,1.596,1.429,2.118,2.42c2.125-0.571,3.104-3.2,5.142-3.63
		c4.301-0.906,7.749,3.092,8.167,7.261c2.924,1.311,2.348,6.123,3.933,8.772c0.977-0.536,2.118-0.907,3.328-1.21
		c0.329-1.083,0.366-2.458,0.908-3.328c2.483-0.567,2.672,1.16,3.327,2.42c0.285-1.229,2.14-0.886,2.42-2.118
		c0.213-1.588-2.244-2.951-1.815-5.747c0.703-0.205,0.81-1.006,1.513-1.211c3.137,2.932,10.466,4.47,10.286,9.378
		c-0.094,2.549-3.499,3.377-1.815,6.958c1.091-0.422,0.749-2.277,1.815-2.723c2.775,0.451,4.743,1.71,5.142,4.538
		c0.44,0.568,1.98,0.036,2.421,0.605c-0.236,3.362,2.827,3.424,3.327,6.05c-2.877,5.818,1.416,10.645,4.84,13.008
		c0,0.806,0,1.613,0,2.42c0.421,0.485,1.493,0.322,1.815,0.907c0.229,1.841-0.484,2.744-0.303,4.538
		c0.186,1.024,2.036,0.384,2.723,0.908c1.124,2.809,3.012,4.854,6.05,5.747c0.445,1.573,0.281,3.753,0.303,5.748
		c1.204-0.509,2.979-0.45,4.235-0.907c3.457,0.98,3.132,5.74,5.445,7.865c0.183,5.326-2.381,7.905-3.025,12.403
		c0.6,0.409,1.177,0.84,0.908,2.117c2.732,0.527,9.796-1.806,14.823-1.21c3.104,0.368,4.997,0.113,6.655-2.42
		c1.29,0.658,1.682,0.698,3.025,0.908c0.465,1.148,0.876,2.351,1.21,3.63c0.741-0.268,0.328-1.688,1.513-1.513
		c1.665,0.05,1.874,1.555,3.933,1.21c0.962-1.077,0.272-4.746,2.42-5.445c3.544,1.186,4.767,0.441,8.167,0.605
		c0.719,1.221,0.354,2.904,0.605,3.933c7.126,3.578,9.179-7.172,14.823-9.68c1.777,0.767,3.38,1.472,5.143,1.513
		c0.335,1.278,0.349,2.878,0.303,4.538c0.539,0.713,1.322-0.876,2.723-0.303c-0.993-2.536-1.966-5.092-3.328-7.26
		c0.582-1.436,1.793-2.24,3.025-3.026c2.004,1.209,3.821-0.4,5.445,0c1.926,0.901,1.267,5.99,0.908,8.168
		c1.624,2.006,4.307,2.954,4.538,6.353c3.068,0.726,6.009-0.153,9.074,0.303c1.791-1.887,1.677-3.454,1.21-6.655
		c1.519-1.507,2.523-3.527,3.631-5.445c4.256,0.284,9.647,4.897,12.101,0c5.093,2.866,8.375-2.871,13.31-2.118
		c2.148,0.328,3.838,2.984,6.05,3.026c1.714,0.031,2.386-1.558,3.934-2.118c2.099-0.759,4.123-0.052,5.445-1.513
		c1.611,0.3,2.373,1.611,3.933,1.513c1.2-0.075,1.752-1.475,3.025-1.815c2.245-0.599,4.356,0.815,6.05-0.605
		c-0.188-2.03-1.115-3.322-3.025-3.63c-0.543-2.583-2.061-4.191-2.117-7.26c3.765-1.58,7.048-3.641,8.167-7.865
		c3.559-1.218,6.267-0.7,11.496-0.908c0.336,0.572,0.386,1.429,0.605,2.118c1.638-0.3,2.564-0.979,3.933-0.908
		c2.397,0.125,3.605,2.563,5.444,1.513c1.035-0.128,0.909,0.906,1.513,1.21c3.403-0.831,5.181-3.29,8.772-3.933
		c0.754,7.45,10.781,6.697,16.638,4.235c1.863,0.86,1.504,3.941,2.723,5.446c1.347,0.266,2.804,0.423,3.328,1.512
		c-1.193,2.839-4.51,3.557-4.233,7.865c0.403,1.411,3.874-0.246,3.931,1.512c0.52-0.388,0.375-1.44,1.209-1.512
		c1.756,1.621,4.535,0.229,6.657,0.907c2.653,0.85,4.62,5.542,3.932,8.773c-0.727,3.415-4.956,4.821-6.049,7.26
		c0.886,2.221,2.828,4.721,5.143,4.538c-0.005-5.321,1.551-8.104,8.166-7.866c4.788,1.464,4.896,7.609,8.471,10.286
		c-0.618,2.969,0.589,4.008,0.303,6.05c5.605,1.05,9.106,4.206,8.472,11.496c0.756,0.957,2.065,1.36,3.325,1.815
		c0.458,1.962,1.829,3.011,3.026,4.235c-0.197,1.718,0.398,4.229-0.303,5.445c-4.899,3.368-9.857,6.679-15.429,9.378
		c0.568,1.638,0.147,3.39,0,5.143c2.12-0.704,4.052-1.595,7.26-1.21c1.189,2.316,0.126,4.249,0.605,6.655
		c0.38,1.899,2.162,2.984,2.42,4.538c0.466,2.796-0.861,6.213-1.511,9.075c0.75,1.972,1.986,3.458,3.328,4.84
		c1.371-0.14,2.479-0.544,3.932-0.605c2.454-4.108,5.802-8.909,12.402-7.865c0.793,1.25-0.455,2.658-0.303,4.235
		c0.722,0.222,2.726-0.195,3.328,0.907c0.49,2.822-1.918,3.943-1.514,6.051c0.44,2.3,7.151,5.486,11.8,5.445
		c0.4,1.213,0.418,2.808,0.905,3.933c5.532,0.555,6.268-6.211,9.683-8.772c0.131-1.381-0.308-3.331,0.301-4.235
		c2.023-0.465,4.259-1.169,6.051-0.303c0.369,3.696-0.359,6.622,0.303,9.982c5.531,2.939,9.898,7.04,12.402,13.008
		c2.578-0.678,4.567-3.462,7.26-3.025c0.798,4.685-5.258,9.337-2.117,13.613c1.032-0.077,1.453-0.765,2.724-0.605
		c0.761-4.482,4.054-6.433,6.654-9.076c3.315,0.089,5.8-0.654,9.076-0.605c0.81,1.407,0.99,3.447,1.512,5.143
		c2.587-2.221,5.916-5.052,10.588-2.723c1.772-3.169,2.711-7.171,4.841-9.983c1.316-0.095,2.474-0.349,3.631-0.605
		c3.506,3.147,6.565,6.743,10.586,9.378c0.591,4.229,2.851,8.535,0.908,12.706c0.714,0.597,1.908,0.712,3.025,0.908
		c1.209,4.608,0.384,10.088-0.908,13.916c-7.802-0.037-3.535,11.992-12.402,10.89c-0.524-0.9,0.098-1.535-0.303-2.117
		c-3.42,0.008-4.666,2.19-5.749,4.537c0.576,1.24,2.603,1.029,2.723,2.723c-1.619,2.561-3.862,4.173-8.165,3.328
		c0.842,1.78,2.853,2.39,4.233,3.63c2.221-0.7,3.36-3.165,5.446-2.722c2.004,0.425,2.474,4.814,5.445,4.537
		c0.251,2.728-1.103,3.49-1.211,5.445c-0.283,5.192,5.369,7.835,1.514,11.496c0.978,1.44,2.442,2.396,4.234,3.025
		c2.546-2.649,5.649-2.038,8.168,0.302c0.136,2.759-0.3,4.945-1.514,6.353c0.596,3.928,2.614,8.493,0.605,12.402
		c-0.724,0.184-1.381,0.435-2.42,0.303c-0.719,1.096-0.913,2.717-0.908,4.538c4.552-0.095,7.799,1.281,10.588,3.63
		c-0.761,2.465-1.959,4.495-2.117,7.562c-1.41,0.099-2.385-0.236-3.328-0.605c-0.722,3.169,0.645,6.829-1.512,8.773
		c2.789,2.437,0.78,7.383-1.211,9.377c0.526,1.19,0.913,2.516,1.514,3.631c-1.295,3.042-3.286,5.387-6.959,6.05
		c4.285,2.633,1.841,8.634,1.514,13.916c-1.241,0.473-1.646,1.782-3.025,2.117c-0.231,1.642,0.479,2.345,0.303,3.933
		c-2.403,0.219-2.107,3.138-4.84,3.025c-1.856,2.681-0.461,8.615-3.935,9.68c-0.206,1.218,0.291,1.728,0.303,2.723
		c-1.839,1.993-2.36,5.303-4.84,6.656c-6.888,0.752-13.943,0.281-14.822,7.865c-1.317,0.308-1.391-0.627-2.117-0.908
		c-1.034,1.083-1.23,3.006-3.328,3.025c-0.104,2.618-1.571,3.874-1.814,6.353c2.606,1.627,6.531,1.938,9.377,3.327
		c-0.066,0.974,0.536,1.28,0.303,2.42c-0.487,0.622-1.517,0.702-2.723,0.605c-0.288,1.223-0.869,2.154-1.209,3.327
		c-6.735-0.886-6.098,5.6-10.588,6.959c0.416,3.011,1.74,5.114,2.117,8.167c0.047,1.157-1.236,0.983-1.814,1.513
		c0.573,1.441,2.521,1.51,2.723,3.327c2.154-1.697,5.672-1.422,9.074-1.21c2.135,2.537,1.413,6.363,2.117,9.681
		c0.771,3.62,3.383,5.932,5.445,7.864c2.09-0.663,3.472,0.08,4.537,1.21c2.635-2.459,6.849-5.942,10.892-2.722
		c0.576,3.245-0.702,6.517,0.908,8.773c4.633,0.51,8.508-0.735,12.402,1.814c-0.515,3.565,0.709,5.803,0.604,9.68
		c-2.575,2.282-7.216,3.765-11.191,3.329c-1.57-0.173-2.732-1.455-4.234-1.515c-4.437-0.172-6.258,3.634-10.589,4.84
		c-1.324,0.116-1.454-0.965-1.816-1.813c-2.363,1.29-0.812,4.769-1.209,6.957c3.577,1.187,6.777,2.597,9.983,4.539
		c1.572,0.953,3.437,2.164,3.631,3.326c0.187,1.138-1.28,5.242-2.42,6.354c-0.315,0.306-1.536,0.199-1.817,0.604
		c-0.805,1.156-0.559,2.914-1.208,4.236c1.777,1.044,4.563,1.083,6.352,2.117c-0.694,2.954,2.021,3.631,0.908,6.051
		c0.891,1.325,2.728,1.707,3.932,2.721c-0.128,2.73-2.703,4.51-2.117,6.96c0.957,1.462,3.058,1.782,4.537,2.723
		c-0.458,2.676,1.619,2.816,1.816,4.84c-0.135,1.177-1.384,1.238-2.119,1.814c1.567,1.861,3.909,2.949,5.445,4.84
		c-0.096,5.35-4.05,6.839-6.957,9.377c1.677,4.124-0.288,6.292,0,10.285c-2.167,1.563-6.275,1.187-8.472,2.724
		c1.295,2.363-0.403,3.854-1.814,5.143c2.484,2.437,0.018,7.279,0.304,11.193c2.629,2.413,7.823,2.26,9.68,5.445
		c1.649-0.066,1.154-2.274,2.723-2.42c1.193-0.185,0.356,1.66,0.605,2.42c0.599,0.51,2.006,0.212,1.512,1.814
		c2.277-0.802-0.362-1.876,0.605-3.631c0.945-0.911,3.326-0.788,3.932,0.303c-1.322,2.789,0.502,2.612,0,5.445
		c-1.258,1.199-4.555,1.224-4.234-1.512c-1.199,0.722,0.066,2.002,0,3.326c1.519,0.197,3.825-0.396,4.84,0.303
		c-0.387,1.327-3.166,0.264-4.537,0.605c-0.889,2.036-1.189,4.658-2.117,6.654c-2.184,0.419-4.673,1.359-6.654,0.304
		c-1.359,0.559-1.797,2.035-2.423,3.328c-3.7-0.071-7.247,0.012-10.585,0.303c-1.743,1.182-2.539,3.312-4.237,4.537
		c-4.495,0.445-9.985-0.691-13.914-1.814c-1.209,0.099-0.638-1.58-1.211-2.117c-3.846,1.044-5.323-2.686-7.866-3.934
		c-0.096-4.441-2.57-6.505-3.022-10.589c-2.891-0.337-5.377-1.078-6.96-2.723c-0.02,1.394-0.413,2.41-0.906,3.328
		c-1.994,0.079-3.257-0.576-4.537-1.208c-2.312,1.319-3.648,3.613-6.354,4.537c0.131,0.475,0.953,0.258,0.605,1.208
		c-4.555-0.216-8.836-0.162-10.891,2.117c-11.099,1.421-10.906-8.453-21.175-7.862c-0.562,0.549-0.394,1.824-0.908,2.42
		c-3.001,0.706-7.873,2.203-6.957-3.026c-3.621,1.421-3.39,6.696-6.051,9.074c2.176,6.741-0.83,10.234-4.234,13.614
		c-0.262,4.783-0.084,8.739-0.909,13.009c-1.065,5.512-7.929,10.735-8.771,16.939c3.309,7.73-1.854,12.87-3.631,19.057
		c-1.436,4.99-1.063,10.308-4.537,13.614c0.682,4.919-1.305,7.166-3.025,9.68c0.458,7.014-3.166,9.943-2.723,16.939
		c-6.312,5.244-18.479,0.963-14.823-9.982c0.406-0.701,1.751-0.465,2.42-0.906c-1.226-2.203-3.525-3.33-3.631-6.656
		c0.852-0.359,1.74-0.68,2.723-0.906c-1.79-1.209-2.679-3.983-5.143-4.537c-1.041-0.236-2.274,0.581-3.326,0.301
		c-2.765-0.736-2.979-3.221-2.723-7.26c1.172-0.843,2.959-1.071,4.84-1.209c-1.305-3.134-1.551-7.324-4.234-9.077
		c-1.305,0.212-1.243,1.782-2.422,2.12c-2.915,0.654-3.723-1.928-6.049-0.909c-1.214,1.81-1.928,4.124-4.538,4.538
		c-0.209,2.124,0.513,3.32,0.303,5.445c-2.796,1.002-6.276,1.125-9.075,0.303c-3.881-1.143-4.424-5.183-6.353-7.865
		c-1.478,2.555-1.912,6.154-4.235,7.865c-3.103,0.224-5.869,0.785-9.076,0.906c-1.348-2.081-2.485-4.37-4.234-6.049
		c-4.464,1.494-5.714-5.576-9.982-1.515c-1.351-0.263-1.74-1.486-2.118-2.72c-1.228,1.091-2.491,2.146-4.84,2.117
		c-0.882,3.683-3.434,9.934-3.933,14.217c-0.177,1.512,0.509,3.27,0.303,4.84c-0.328,2.496-2.352,4.884-1.816,7.562
		c-2.36,0.665-3.375,2.677-4.84,4.234c0.853,1.167,1.515,2.521,1.21,4.843c-1.928,0.861-4.311,1.184-6.05,0
		c-3.254,1.384-5.465,3.811-7.865,6.049c-1.151-0.099-2.955-0.683-3.63-0.303c-1.562,0.758-0.812,3.825-2.117,4.84
		c-3.139-0.377-6.367,0.643-8.772,0c-1.878-4.456,5.231-8.807-0.907-10.586c-2.207,0.716-3.186,2.663-5.143,3.629
		c-1.578-0.236-1.523-2.107-2.119-3.329c-1.896-0.182-3.199,0.229-4.84,0.303c0.061,2.078-0.549,3.486-1.21,4.841
		c-4.917-0.173-9.574,0.97-13.007-0.906c-0.792-2.939-3.088-4.375-5.446-5.748c-2.823,1.206-4.108,4.18-8.47,3.025
		c-2.705,1.782-4.295,5.638-8.168,6.352c-3.049,0.563-7.073-1.753-9.377,0.605c-3.837-0.699-2.807-6.268-6.051-7.562
		c0.214-0.997,0.486-1.936,0.605-3.026c-6.19-2.548-15.277,1.18-18.453-4.234c-0.292-8.574,7.121-19.298-1.21-23.596
		c0.834-5.621,6.188-6.719,12.403-6.958c0.458-2.579-2.817-5.366,0.605-6.957c3.58,0.116,6.257,1.832,9.983,0.906
		c0.279-1.184-1.596-0.219-1.815-0.906c0.894-6.423-1.428-12.516,0.907-16.033c-1.549-2.439-3.409-5.599-3.025-9.074
		c0.226-2.034,2.561-3.725,0.908-5.445c1.021-1.298,1.587-3.051,2.722-4.234c0.275-1.487-1.268-1.152-1.21-2.42
		c0.547-1.372,1.105-2.729,2.723-3.026c-2.143-1.514-0.313-3.961-0.908-5.748c-0.769-2.312-4.146-1.455-4.538-4.234
		c-2.676,1.015-4.764,0.29-6.958-0.605c0.243-1.049-0.451-1.162-0.303-2.117c-0.064-1.275,1.354-1.066,1.815-1.817
		c-2.564-0.962-6.707-0.35-9.075-1.511c-1.677,0.643-2.064,2.575-3.631,3.328c-2.89-0.539-5.704-1.152-8.47-1.817
		c-0.135-2.855,0.951-4.492,0.605-7.562c-1.748-1.179-2.441,0.097-4.235,0.303c-0.34-0.566-1.172-0.643-1.512-1.208
		c-0.817-0.971,0.233-2.007,0-3.329c-3.48,0.353-5.146,2.519-7.866,3.632c-2.5-2.24-6.734-2.745-8.168-6.052
		c-5.669,0.83-8.156-1.523-9.68-4.84c3.68-5.33,0.901-11.75,0.907-18.454c-1.558,0.158-1.049,2.381-2.42,2.724
		c-4.258-0.754-1.465-6.261,0.303-7.866c-2.899-4.018-8.282-6.831-6.655-13.611c-0.739-0.573-1.972-0.649-3.328-0.605
		c-2.101-2.632-5.369-4.806-6.353-8.471c-0.353-1.315,0.172-2.649-0.302-3.932c-0.469-1.271-2.09-2.068-2.723-3.329
		c-1.512-3.011-0.187-6.664-3.327-7.865c0-1.915,0-3.83,0-5.746c-1.832-0.118-2.159,1.269-3.631,1.512
		c-1.469-0.243-2.055-1.373-3.328-1.814c-1.104,0.207-1.475,1.147-2.42,1.512c0.75,4.395,5.381,4.904,5.445,9.982
		c-2.265,1.063-4.062,2.593-7.26,2.724c-0.414-0.387-0.414-1.429,0-1.814c-1.277,0.335-1.184,2.043-2.42,2.42
		c-1.122-0.189-1.771-0.853-2.723-1.212c-2.546,4.404,3.209,6.475,3.328,8.774c0.135,2.624-3.91,2.972-5.445,5.143
		c-1.479-0.438-1.812-2.021-2.42-3.328c-1.556,0.059-2.133,1.096-3.631,1.211c-0.817,4.325-4.746,5.539-6.05,9.377
		c-3.16,0.066-5.714,0.739-9.076,0.605c-0.872-1.957-3.441-6.363-0.302-7.865c-0.63-1.687,0.52-3.537,0.605-5.445
		c-4.245,2.104-6.416-1.684-6.05-6.052c-3.841,0.599-6.64-1.439-8.773,0c-2.033,1.374-1.333,4.83-3.328,6.96
		c-3.003-0.28-3.614,1.829-5.747,2.42c-2.387-0.741-5.726-0.526-8.167-1.211c-1.507-2.282-4.083-4.914-3.328-8.469
		c-1.941,0.571-3.202,0.571-5.143,0c-4.057,2.899-8.84,5.073-10.588,10.283c-12.154,3.079-18.119-6.261-22.083-14.218
		c-3.897-1.043-7.56-2.321-12.101-2.723c-1.683-1.737-2.998-3.582-4.538-5.445c-1.335-1.615-3.577-3.161-4.538-5.143
		c-1.509-3.111-0.604-8.043-3.328-10.285c0.686-4.659,7.345-5.503,7.563-10.89c0.044-1.091-0.726-1.947-0.605-3.025
		c0.197-1.745,2.419-3.446,2.723-5.749c0.835-6.331-4.993-14.071-3.025-22.083c0.951-3.87,6.029-8.361,5.445-11.797
		c-0.377-2.221-3.774-3.536-5.143-4.84c0.246-3.969-0.337-7,0-10.285c0.377-3.685,2.954-6.526,1.815-10.286
		c-1.637-5.404-7.81-8.758-11.193-13.008c-0.243-4.021,2.303-6.587,2.723-9.68c0.639-4.71-1.535-7.853-2.42-11.799
		c-0.598-2.666-0.082-5.563-0.605-8.168c-0.531-2.644-1.419-5.52-2.42-7.562c-1.121-2.287-3.594-3.575-4.84-6.049
		c-3.037-6.033-1.321-13.808-3.933-21.782c-4.789-2.774-8.166-6.959-11.495-11.192c-6.966-2.502-15.856-9.151-10.286-17.244
		c0.682-0.991,2.328-1.602,3.328-3.025c1.404-1.998,1.456-5.669,3.025-8.772c1.824-3.605,4.386-4.277,3.328-9.983
		c0.754-1.464,2.009-2.428,2.722-3.933c-1.208-3.128-2.877-5.794-3.932-9.075c-6.166,1.536-7.176-5.98-3.63-8.168
		c-2.059-7.419-6.299-12.657-9.378-19.058c0.52-0.815,3.032-0.829,3.933-0.302c2.271-1.878,3.874-3.057,7.563-4.538
		c1.398-0.562,3.457-1.656,4.538-1.815c1.665-0.245,4.012,1.025,5.748,0.605c2.133-0.517,2.814-3.296,4.235-4.235
		c-0.747-2.077-2.348-3.299-5.143-3.328c-0.389-2.725-1.419-5.335,0-7.562c-3.323-4.078-2.422-9.692,1.815-12.101
		c-1.013-1.911-1.983-3.866-4.84-3.932c-0.7-1.619-1.719-2.919-2.42-4.538c0.304-1.008,0.543-2.079,0.907-3.025
		c-2.107-3.439-6.821-4.271-10.587-6.05c-0.099-2.119,1.383-4.327-0.302-5.445c-1.78,0.236-1.659,2.375-3.328,2.722
		c-1.563-0.935-3.086-2.613-3.328-4.235c-0.34-2.287,1.835-5.044,1.815-7.866c-0.019-2.701-1.876-3.772-1.512-6.352
		c5.933-1.349,12.987-6.466,18.453-2.118c6.689-2.589,9.563-8.991,20.268-7.563c0.2-2.321-0.4-5.442,0.303-7.26
		c-2.626-1.519-3.953-4.27-2.723-8.168c0.875-0.839,2.453-0.976,3.328-1.815c-0.313-0.796-0.362-1.856-0.303-3.025
		c-2.089-1.944-4.746-3.32-6.655-5.445c1.43-3.712,2.043-8.243,2.118-13.311c2.196-1.333,5.689-1.37,8.47-2.118
		c0.52-0.893,0.641-2.182,0.605-3.63c1.738-1.187,3.848-2.001,5.748-3.025c1.103-1.116,1.619-2.818,2.42-4.235
		c5.258-1.7,7.048-6.867,8.773-12.1c-1.554-1.976-3.223-3.836-2.722-7.866c-0.598-0.511-1.888-0.331-2.723-0.605
		c-0.679-2.251-0.325-5.654,1.513-6.353c-1.089-1.634-3.243-2.203-4.538-3.63c0-1.311,0-2.622,0-3.933
		c-3.03-2.113-6.811-3.474-9.982-5.445c-0.583-3.854,0.518-9.392-2.723-10.588c-0.022-1.288-0.506-2.115-0.303-3.63
		c-1.298-0.517-3.552-0.078-4.537-0.907c0.162-2.057,1.196-3.241,1.815-4.84c-1.599-1.858-2.642-5.447-6.353-4.235
		c-0.761-0.651-1.233-1.59-1.815-2.42c-4.995,2.027-6.083-4.429-11.496-3.933c-1.81-7.63,2.686-11.104,8.168-12.403
		c0-1.21,0-2.42,0-3.63c1.479-0.935,3.983-1.08,6.05-0.605c2.892-4.167,4.471-9.646,7.26-13.916c3.111,0.085,3.947-2.103,3.63-5.445
		c-0.685-1.635-4.272-0.366-5.748-1.21c-0.65-1.408-0.088-3.268,0.605-4.235c-2.775-2.1-1.884-4.94-3.63-7.261
		c1.656-3.083,4.272-5.206,6.353-7.865c-2.294-3.047,0.083-7.796,1.512-9.983c2.524,0.047,6.17-0.167,8.471-1.21
		c1.325,0.793,2.136,2.099,4.235,2.118c1.469-3.169,3.765-5.513,7.563-6.353c1.792,0.963,2.663,1.321,5.445,0.907
		c0.678-0.33,0.532-1.485,1.21-1.815c3.561-0.554,3.838,2.456,6.655,1.815c0.339,0.77,0.743,1.476,1.21,2.118
		c2.553-1.912,7.457-1.131,10.285,0c2.307-2.13,3.486-5.387,7.563-5.748c1.628,1.466,4.427,2.742,6.353,1.513
		c1.904,0.653,3.74,1.795,5.748,1.513c1.982-0.279,2.35-2.153,4.235-2.118c-0.177-1.589,0.533-2.29,0.303-3.933
		c1.691-3.624,5.589-3.86,7.865-0.605C180.78,101.172,181.465,102.614,183.334,102.499z M88.951,372.64c0,0.403,0,0.807,0,1.21
		c0,0.302,0,0.605,0,0.908c-2.315,0.986-2.64,4.682-5.445,5.445c-2.065,0.561-4.539-0.617-6.656-0.303
		c-5.064,0.752-8.144,3.609-11.192,6.05c-0.532,0.174-1.778-0.366-1.815,0.302c3.364,4.501,6.15,9.581,7.865,15.73
		c0.287,0.621,0.977,0.839,1.513,1.21c-0.646-0.141-0.576,0.432-0.605,0.908c2.717,5.552,5.105,11.432,7.562,17.243
		c-2.297,1.737-4.004,4.063-3.328,8.773c-2.669,3.885-4.729,8.379-6.05,13.612c-2.412,1.824-4.255,4.215-5.445,7.261
		c1.34,5.819,5.854,8.465,11.192,10.285c2.649,2.539,4.024,5.83,6.655,8.168c1.733,1.54,4.496,1.971,5.748,3.932
		c3.241,5.076,0.539,15.51,3.63,21.781c0.909,1.843,2.818,2.625,3.933,4.538c2.83-6.81,11.623,4.878,2.118,4.84
		c2.223,3.494,0.92,8.647,2.117,13.31c0.526,2.05,2.599,6.567,2.723,9.379c0.195,4.424-2.287,7.422-3.025,11.495
		c1.937,2.433,5.127,3.997,7.26,6.655c1.832,2.282,4.697,6.432,4.538,9.68c-0.119,2.438-2.082,5.12-2.42,8.168
		c-0.32,2.883,0.234,5.372,0,8.773c8.779,2.489,3.663,13.263-0.302,18.149c-0.676,8.271,2.472,14.438,3.327,22.084
		c-1.248,1.575-1.777,3.869-3.025,5.445c2.791,6.679-4.19,9.665-6.655,13.915c2.63,2.262,1.555,5.979,2.722,8.773
		c1.7,4.067,6.499,6.201,8.167,9.982c4.57,0.473,8.157,1.928,12.403,2.723c4.037,6.854,8.674,16.916,19.36,14.218
		c2.203-5.158,7.337-7.383,11.496-10.589c2.828,1.61,5.83-0.756,8.471,0c-0.782,2.415-0.685,8.964,3.327,9.38
		c4.663,0.48,7.142-0.578,10.285-2.42c1.322-2.977,1.037-6.31,4.538-6.96c2.976-0.549,7.265,0.948,10.587,1.212
		c0.248,1.969-0.035,4.473,0.908,5.748c1.483,0.219,4.128-1.405,5.445,0.604c-0.263,2.718-1.531,5.164,0,7.262
		c-0.438,1.073-2.323,0.702-2.42,2.117c0.307,1.104,0.75,2.073,1.21,3.025c2.047-0.272,4.351-0.288,6.353-0.605
		c0.808-3.932,5.167-4.312,5.445-8.773c2.051-0.67,3.697-1.748,5.748-2.42c1.123,0.593,1.278,2.151,2.42,2.723
		c0.632-0.576,1.444-0.975,2.42-1.209c-2.748-2.58-4.435-8.06-1.815-12.103c1.534-0.02,1.955,1.071,3.328,1.212
		c1.171-1.45,2.044-3.201,5.143-2.724c0.688,0.22-0.279,2.096,0.907,1.814c0.576-0.128,0.76-0.649,1.513-0.603
		c0.132-3.159-2.771-3.279-3.933-5.143c0.582-2.601-2.277-1.758-2.117-3.935c1.859-1.467,3.348-3.306,5.747-4.234
		c1.167,0.547,2.112,1.317,3.025,2.117c1.207-0.85,4.454-2.061,6.05-0.605c0.817,0.97-0.233,2.007,0,3.328
		c0.609,0.601,0.989,1.431,1.815,1.814c0,0.102,0,0.202,0,0.303c-0.668,0.037-0.129,1.283-0.302,1.814
		c0.057,0.246,0.303,0.303,0.302,0.605c0,0.303,0,0.605,0,0.909c-0.026,0.428-0.05,0.856,0.303,0.905c0,0.202,0,0.404,0,0.605
		c-0.049,0.353,0.066,0.539,0.302,0.605c0.303,3.125,2.299,4.56,3.63,6.654c-0.338,5.783,3.112,7.78,5.143,11.194
		c1.778,0.239,4.091-0.057,4.841,1.209c-0.522,5.701,0.489,7.786,3.932,11.193c2.855,2.824,4.597,3.516,1.21,6.957
		c1.385,0.129,3.415-0.389,3.932,0.606c-1.091,6.543,3.085,14.207-0.907,19.662c0.817,2.711,4.31,3.676,7.865,2.723
		c1.358,3.179,5.557,3.519,7.562,6.052c2.783-1.756,5.482-3.595,9.681-3.935c0.825,0.892-0.24,3.668,0.605,4.537
		c1.133-1.398,3.583,0.482,5.143,0.605c0.624,2.332,0.204,5.441,0,7.866c2.028-0.013,3.258,0.775,5.143,0.908
		c1.457-0.862,2.135-2.504,3.63-3.328c3.449,1.391,8.814,0.866,12.403,2.117c-0.297,2.129-0.157,2.757,0.303,4.537
		c1.594,0.081,2.053-0.973,3.933-0.604c0.843,2.686,3.84,3.218,5.445,5.143c-0.875,4.144,0.661,5.478,1.815,8.166
		c-0.456,1.056-2.114,0.913-3.025,1.514c-0.273,1.583,1.483,1.138,1.21,2.723c-1.175,1.345-1.721,3.321-3.025,4.538
		c0.017,0.991,0.86,1.156,0.605,2.42c-0.434,1.433-1.645,1.949-1.815,3.025c-0.5,3.144,2.923,6.307,3.025,8.771
		c0.053,1.297-1.136,2.444-1.21,3.631c-0.155,2.452,1.015,6.662,0.302,10.891c0.853,0.56,2.664,0.16,3.328,0.906
		c0.468,0.44,0.267,1.549,0.303,2.42c-3.043,2.718-9.908,1.455-13.311,0.908c1.075,1.748,1.5,3.959,0.605,6.352
		c-4.329,0.815-9.844,0.443-11.496,3.935c7.214,5.394,1.228,15.418,0.605,23.896c0.911,0.704,1.882,1.347,2.723,2.117
		c5.328-1.009,11.424,0.086,16.032,1.515c0.054,1.465-0.398,2.425-0.605,3.628c1.66,1.266,2.65,3.201,3.026,5.749
		c2.283-1.032,6.487-0.215,9.377,0c3.429-1.411,5.211-4.469,7.865-6.654c4.711,1.81,6.147-2.297,9.68-3.329
		c2.242,2.196,5.857,3.017,6.655,6.654c2.76,1.44,6.119,0.437,9.983,0.606c0.797-1.202,0.393-3.142,0.605-4.234
		c2.164-0.862,5.049-1.002,8.167-0.909c0.553,0.759,0.631,1.994,1.513,2.42c1.486-3.608,8.085-3.727,9.379,0.304
		c0.96,2.993-1.245,4.933-2.118,7.562c0.999,0.189,3.829-0.128,5.748,0c0.007-3.855,2.222-5.968,6.353-4.84
		c1.62-1.436,5.18-5.808,8.167-6.049c1.586-0.131,2.437,1.669,4.235,0.906c0.57-2.889-4.226-0.412-4.84-2.117
		c0.399-1.013,3.401,0.578,3.327-0.909c-3.521,0.113-4.202-6.743-1.513-7.562c2.915-0.886,2.921,2.171,3.328,4.84
		c0.666-1.753,2.205-2.634,3.631-3.629c-0.082-2.703,0.396-4.847,1.513-6.354c-0.611-7.486,2.264-14.055,3.933-20.269
		c3.364,0.239,4.223-2.025,6.353-3.022c1.389,0.426,1.702,1.927,3.024,2.42c1.086-0.631,3.271-0.158,4.84-0.303
		c1.494,1.352,2.273,3.552,5.445,2.42c1.943,1.686,3.089,4.17,4.537,6.352c2.132-0.49,4.687-0.557,6.959-0.906
		c2.554-2.287,1.201-8.479,6.353-8.169c1.685,1.44,2.272,3.979,3.024,6.352c1.746,1.85,6.144,2.442,9.075,2.12
		c-0.437-1.379-0.273-3.358-0.604-4.843c2.286-1.14,4.387-2.469,4.84-5.442c2.837-1.089,4.653-0.704,6.958,0.603
		c1.396-0.517,1.398-2.432,3.025-2.723c5.426,1.531,5.522,8.395,7.865,13.009c-1.383,1.038-4.096,0.745-5.748,1.514
		c-0.209,1.519,0.18,2.439,0.605,3.326c6.342-0.754,8.767,3.564,11.797,6.959c-0.745,1.17-2.737,1.094-3.328,2.42
		c2.274,1.798,5.419,6.554,0.303,7.563c-1.565,7.924,6.273,9.571,10.892,6.957c-0.244-6.699,3.234-9.673,2.723-16.638
		c0.827-1.713,2.686-3.195,3.025-5.143c0.222-1.282-0.549-2.653-0.303-3.934c0.419-2.177,3.144-4.479,3.932-6.957
		c0.623-1.957,0.089-3.397,0.908-5.446c-6.083-0.282-3.19-9.953,2.117-6.352c0.542-2.678,2.159-3.576,2.42-5.748
		c0.32-2.671-1.253-5.376-0.908-8.471c0.15-1.347,0.942-3.863,1.514-5.143c1.916-4.291,6.416-7.918,7.26-11.798
		c0.222-1.019-0.096-2.304,0-3.631c0.242-3.39,1.918-6.191,0.606-9.074c1.302-2.932,4.367-4.104,5.445-7.26
		c-0.729-1.795-0.677-4.367-1.212-6.354c2.834-3.215,3.481-8.618,6.958-11.191c1.706,0.008,2.956,0.473,3.934,1.209
		c0.332,1.347-0.731,2.206,0,3.025c0.975-0.135,1.637-0.578,2.723-0.605c0.646-0.664,0.239-2.383,1.209-2.723
		c11.763-1.779,11.721,8.245,22.082,7.865c0.601-1.014,2.251-0.977,2.724-2.117c-4.328-1.47,0.554-11.075,2.723-5.143
		c-1.557-0.219-2.967-1.854-3.026,0.908c0.34,0.2,2.499-0.246,3.026,0.606c0.633,1.352-0.532,2.678,0.908,3.022
		c0.837-1.858-0.623-6.76,2.723-6.352c1.721,0.21,2.019,2.122,1.814,5.143c2.855-0.473,3.018-3.636,5.748-4.236
		c1.147,0.465,2.352,0.877,3.629,1.211c0.63-0.782,0.188-2.637,1.211-3.025c4.181,0.155,5.604,3.067,9.983,3.025
		c2.07,5.657,2.451,15.67,10.285,13.614c0.635,0.775,0.921,1.903,1.209,3.023c3.854,0.482,6.701,1.974,11.496,1.514
		c1.743-1.182,2.538-3.312,4.234-4.537c3.467-0.064,6.571-0.49,10.286-0.303c0.962-4.343,4.887-3.114,9.074-3.328
		c0.199-1.819,0.903-3.132,1.211-4.841c-1.187-0.327-3.725,0.699-3.932-0.605c0.62-0.891,3.312,0.288,3.932-0.605
		c-0.584-0.628-0.916-1.504-1.211-2.42c-0.806,0-1.613,0-2.42,0c-1.027-1.748-2.669-3.316-4.84-4.234
		c-2.61-1.105-5.584-0.379-6.352-3.328c-1.086-4.158,2.479-9.035-0.606-12.402c0.647-1.269,1.926-1.906,2.42-3.326
		c-0.468-0.44-0.635-1.182-0.605-2.12c1.669-2.265,5.185-2.681,8.472-3.325c-0.544-2.526,1.939-4.229,0.605-6.957
		c-1.711-0.106-3.144-0.49-3.025-2.423c2.535-1.159,9.719-4.663,9.377-7.863c-0.317-2.986-5.586-2.779-6.049-6.354
		c0.507-1.005,2.001-1.021,2.42-2.117c-1.101-2.43-2.947-4.114-5.445-5.143c-1.556-2.738,0.433-5.357,1.209-7.563
		c-3.117-1.117-3.735-4.733-4.234-8.471c-3.041-1.224-6.325-0.443-6.654-3.629c-0.192-1.849,1.893-3.05,1.208-5.748
		c2.861-0.266,3.582-2.672,4.237-5.144c-3.521-3.439-9.505-4.411-13.614-7.26c-0.733-3.912,1.436-15.018,5.445-8.472
		c3.917-2.358,9.993-6.671,15.429-3.022c2.723-0.808,6.528-0.529,8.469-2.12c-0.367-1.849,0.018-4.451-1.209-5.442
		c-0.086,1.021-0.364,1.854-1.514,1.813c-1.426-0.287-2.4-1.028-2.117-3.025c-1.233,0.126-1.908-0.31-1.814-1.512
		c-1.775,0.638-3.851-0.423-5.748-0.605c-2.233-2.056-0.85-6.573-1.814-9.377c-3.956-2.053-5.136,3.769-8.169,3.933
		c-2.169,0.115-2.582-2.576-5.445-1.212c-5.492-3.102-7.023-9.622-8.166-17.847c-2.221-0.283-3.639-0.109-5.748,0.302
		c-1.017,0.901-0.903,2.93-3.025,2.723c-0.618-3.517-3.745-4.523-4.234-8.167c0.241-0.766,1.245-0.771,1.814-1.21
		c-0.596-2.127-1.094-4.352-1.814-6.353c0.293-0.009,0.233-0.371,0.303-0.605c0-0.102,0-0.202,0-0.304c0-0.101,0-0.2,0-0.301
		c0.293-0.009,0.233-0.371,0.3-0.605c0-0.202,0-0.404,0-0.604c0-0.102,0-0.202,0-0.303c0.259,0.055,0.286-0.118,0.303-0.304
		c4.213-1.636,4.003-7.694,10.286-7.26c-0.158-1.188,1.491-3.381,0.605-3.328c-2.216-1.312-5.979-1.078-7.26-3.327
		c0.241-3.289,1.972-5.087,2.117-8.47c3.333-0.688,2.195-4.398,6.354-4.538c0.901-5.683,7.229-4.422,11.191-6.654
		c1.34,0.794,2.193,0.209,4.234,0.301c1.049-2.571,3.757-4.444,2.723-8.167c2.034-1.335,4.04-3.662,2.42-6.957
		c1.308-3.736,6.406-3.68,6.354-8.773c-1.771-1.054-6.298,0.651-7.562-0.907c1.561-1.559,6.575,1.109,8.471-1.21
		c-1.073-0.439-2.567-0.459-2.42-2.117c1.64-0.432,1.017,1.402,2.721,0.907c0.74-0.531,0.716-1.824,0.303-2.723
		c-1.32-0.211-1.704,0.515-3.023,0.303c0.685-0.928,0.11-3.116,1.209-3.63c1.012,0.299,3.39-0.769,3.025,0.907
		c-0.229,0.982-2.957-0.537-2.723,0.908c0.869,0.946,2.954,0.675,3.328,2.117c1.428-4.623,0.643-7.896-2.42-9.982
		c0.482-2.642,3.009-3.241,5.443-3.933c0.615-1.099,0.68-2.75,1.514-3.63c-0.46-1.053-1.149-1.876-1.211-3.328
		c1.137-1.788,2.762-3.086,3.025-5.747c-0.892-0.722-1.903-1.325-2.117-2.723c2.792-2.375,1.226-7.978,2.117-11.496
		c1.002-0.626,2.418,0.482,3.631,0.605c-0.059-1.974,1.063-2.769,1.209-4.538c-2.324-2.972-9.333-0.074-10.285-3.933
		c-0.487-1.982,1.206-4.107,1.211-6.655c1.149-0.061,2.151-0.268,3.025-0.605c0.985-4.131-1.368-6.673-1.211-10.891
		c0.576-1.34,1.58-2.25,1.512-4.235c-0.416-0.693-1.507-0.71-1.814-1.513c-3.776,3.816-9.579,0.297-11.191-3.327
		c0.224-1.388,1.861-1.364,1.814-3.025c-1.987-2.961-3.826-8.092-1.814-12.403c-1.236-1.084-3.506-1.132-3.328-3.63
		c-2.002,0.159-2.651,2.365-4.84,2.42c-3.314,0.083-8.73-4.583-6.052-7.865c2.511-0.326,5.018,0.769,6.052-0.605
		c-3.228-4.419,1.893-11.975,9.074-9.68c0,0.504,0,1.009,0,1.513c4.091-2.362,3.027-11.151,8.773-10.89
		c0.633-2.971,1.285-6.232,0.605-9.681c-1.358-0.257-2.823-0.404-3.631-1.21c1.426-4.656,0.8-8.015-0.303-12.706
		c-3.813-2.438-6.352-6.151-10.286-8.471c-3.778,2.069-2.518,9.177-6.957,10.588c-1.405-0.61-3.042-0.992-4.84-1.21
		c-2.4,1.172-3.906,5.281-7.562,3.328c-0.398-1.619-0.812-3.221-1.211-4.84c-7.274-0.115-11.057,3.263-12.403,9.075
		c-1.577,0.639-3.392,1.046-5.143,1.513c-4.345-2.891-2.274-8.261-0.303-12.403c-1.886,0.567-3.498,2.214-6.049,1.21
		c-2.226-6.345-6.567-10.575-12.705-13.008c-0.633-2.83-0.18-6.12-0.303-9.982c-0.712,0.096-1.135,0.478-2.117,0.303
		c0,1.109,0,2.218,0,3.327c-3.21,2.347-5.803,12.022-12.1,10.285c-1.819-0.501-1.859-2.531-2.723-4.538
		c-3.946-0.53-10.552-2.554-11.8-5.748c-0.793-2.029,0.854-3.454,0.605-5.748c-0.882,1.301-2.525-0.033-3.025-0.907
		c0.401-1.212,0.418-2.809,0.908-3.933c-4.766,0.679-6.724,4.168-8.774,7.563c-2.237,0.325-5.285,1.313-7.26,0.908
		c-1.028-2.399-2.855-4.002-3.932-6.353c1.32-2.41,1.182-6.28,1.814-9.377c-2.417-1.615-2.318-5.747-2.723-9.378
		c-3.158-0.038-5.881,3.08-7.865,0c0.613-2.342,0.657-4.699,0-6.957c5.512-3.06,10.66-6.483,16.034-9.681
		c0.189-5.031-3.017-6.665-6.052-8.47c-0.47-1.04-0.709-2.315-0.603-3.933c-3.09,0.64-2.772-3.873-1.817-5.445
		c-2.703-0.652-2.821-1.319-6.352-1.815c0.448,1.933,8.307,5.045,1.814,7.26c0.392-0.617,1.468-0.55,1.211-1.815
		c-2.203-1.638-6.127-3.786-3.025-7.26c-0.133-1.839-1.096-3.223-0.303-5.143c-2.959-3.143-4.884-12.568-11.797-7.865
		c1.492,7.358-4.34,7.596-7.562,4.537c-0.744-0.705-2.661-3.377-2.723-4.235c-0.259-3.57,5.768-5.013,6.352-8.772
		c0.433-2.799-1.394-3.783-2.42-5.748c-3.065-0.24-5.471,0.176-7.563,0.907c-1.206-0.71-2.203-1.628-4.537-1.21
		c-2.737-2.613-0.359-8.206,1.512-9.982c-1.792-0.83-3.353-1.89-3.025-4.84c-5.175,1.593-10.928,1.625-15.729-0.303
		c-0.508-1.407-0.734-3.096-1.815-3.932c-2.18,1.55-4.692,2.77-7.562,3.63c-1.591-0.516-1.597-1.146-3.327-0.303
		c-1.679-3.421-4.565-2.215-8.772-1.815c-0.254-0.653-0.783-1.031-0.606-2.117c-3.347-0.158-5.706,0.655-8.167,0.605
		c-1.083,4.061-4.732,5.552-7.562,7.865c0.667,2.358,1.9,4.149,3.933,5.143c0.23,1.786,1.139,2.895,1.21,4.84
		c-2.464,3.03-8.352,0.766-10.588,3.933c-1.807-0.411-3.827-0.61-5.143-1.513c-0.787,1.028-2.22,1.411-4.234,1.211
		c-1.539,1.682-3.44,2.396-5.749,2.117c-2.885-0.349-4.443-3.894-8.47-2.722c-0.88,0.255-1.814,1.473-2.723,1.815
		c-1.835,0.688-3.958,0.385-6.05,0.907c-2.084,0.521-3.627,1.674-5.748,1.513c-2.371-0.181-3.709-1.714-6.654-2.118
		c-0.425,1.794-1.463,2.976-2.42,4.235c1.125,1.326-0.1,3.943,0.907,4.84c-0.102,0-0.202,0-0.303,0
		c-0.258-0.056-0.286,0.118-0.304,0.302c-0.101,0-0.201,0-0.301,0c-0.34,0.064-0.472,0.336-0.605,0.605c-0.102,0-0.202,0-0.304,0
		c-0.257-0.055-0.285,0.118-0.301,0.303c-0.305-0.001-0.361,0.245-0.605,0.303c-0.732,0.477-1.339,1.082-1.816,1.814
		c-2.222-1.6-6.687,0.046-9.982-0.907c-0.949-3.487-3.87-5.003-5.748-7.562c0.715-1.705,0.659-4.182,0.605-6.656
		c-1.987,1.007-3.548-0.306-4.84,0.606c-0.096,1.81,2.531,0.897,2.42,2.722c0.387,1.194-0.882,0.731-0.908,1.513
		c4.26,3.604-2.078,7.959-5.748,4.84c0-1.21,0-2.42,0-3.63c-0.965-0.638-3.622-0.89-4.235-0.908c-1.87,1.659-2.485,4.573-3.63,6.958
		c-3.965-0.352-6.661,6.834-9.378,2.118c-0.172,0.836-0.32,1.696-1.512,1.513c-2.473-0.537-2.417-3.964-1.513-5.748
		c-2.076,1.271-3.855-0.031-6.05-0.303c-0.883,1.576,0.654,2.3,0.302,4.235c-1.981,0.753-4.875,1.867-6.655,0.303
		c-0.189,1.323-1.741,1.285-3.328,1.21c-0.908-0.806-0.916-2.512-1.513-3.63c-2.029-1.004-2.578,1.398-4.537,1.815
		c-1.603,0.342-3.087-0.547-4.84-0.605c-3.796-0.125-7.532,0.749-10.588,1.513c-2.664-1.37-5.082,1.878-6.958,0.302
		c0.801-1.626,1.023-2.458,0-3.933c1.652-1.876,2.028-5.031,2.42-8.167c0.904-0.93,1.681-2.043,1.513-3.63
		c-0.083-0.783-1.271-1.296-1.815-3.025c-0.622-1.971-0.595-4.193-3.025-3.933c-0.512,1.861,1.338,6.045-0.908,7.261
		c-3.196-0.132-5.772-0.883-8.168-1.816c0.617-4.035-5.125-4.998-1.513-8.47c2.636,0.659,4.628-0.167,5.748-1.815
		c-2.212-1.923-4.671-3.598-6.05-6.353c-3.232,0.409-3.138-2.509-3.025-5.445c-0.24-0.667-1.422-0.393-1.513-1.21
		c0-0.807,0-1.613,0-2.42c-3.574-2.646-7.751-8.957-5.143-14.823c-0.825-1.292-3.284-0.95-2.722-3.63
		c-3.214,0.189-2.44-3.609-4.538-4.537c-0.263,2.122-2.95,2.676-4.84,1.512c-0.246-2.18-1.321-3.036-0.907-5.143
		c0.35-1.779,2.316-2.348,2.117-3.932c-0.34-2.706-4.858-3.15-6.655-5.445c0.233,1.48,1.793,1.634,1.815,3.328
		c-0.928,2.5-3.019,3.838-4.84,5.445c-1.524,0.314-2.111-0.309-2.42-1.21c-1.702,1.526-4.089,2.365-6.958,2.723
		c-1.693-3.248-1.412-8.47-4.841-9.982c0.718-3.436-2.081-6.437-4.537-6.353c-2.61,0.089-3.708,3.984-6.353,3.933
		c-1.958-1.619-5.396-2.878-4.538-5.749c0.652-2.18,5.083-1.377,5.143-4.537c-2.743-0.383-7.032,0.779-8.773-0.605
		c5.69-0.686,13.575,1.016,13.008-4.84c-0.263-2.715-4.017-2.655-3.933-6.353c1.694-1.028,2.065-3.38,3.933-4.235
		c0.156-2.172-0.719-3.314-1.513-4.538c-0.806,0-1.613,0-2.42,0c-0.859-2.771-5.281-1.979-6.353-4.537
		c0.215-1.903,2.305-1.932,2.42-3.933c-1.084-2.564-7.293-2.829-5.143-6.655c-1.047,0.465-2.757,0.268-4.235,0.303
		c-1.321-2.107-1.883-4.974-2.42-7.866c-4.123-2.028-4.959-7.342-8.471-9.982c-3.75,0.493-5.317-1.662-8.772-0.605
		c0.04,0.746,0.046,1.458-0.302,1.815c-2.851,0.074-2.312,3.538-5.143,3.63c-1.951-1.579-1.373-5.686-4.538-6.05
		c-0.537-0.572-0.22-1.998-0.302-3.025c-2.531-1.1-5.778-1.483-7.562-3.328c-2.328,0.916-2.625,4.98-0.908,6.656
		c-0.332,1.08-1.038,1.785-2.118,2.117c-3.229-1.052-7.948,0.967-10.89-1.21c-0.275,0.633-0.893,0.922-1.815,0.908
		c-2.037-0.685-4.52-0.925-5.747-2.42c-3.221,0.716-2.877,4.727-5.748,5.445c-2.149,0.538-4.913-1.495-7.562-1.21
		c-1.93,0.208-2.373,1.619-4.538,1.512c-0.886-1.449-1.778-2.301-3.63-2.117c-0.573-0.638-0.483-1.938-1.816-1.815
		c-1.491,2.307-6.587,2.648-8.772,0.907c-4.286,0.756-3.878,6.205-7.26,7.865c-0.553-0.456-0.927-1.09-0.908-2.118
		c-1.89,0.076-2.957-0.673-3.933-1.513c-1.55,0.87-3.834,1.006-6.352,0.908c-1.442,2.405-2.021,5.678-0.303,8.168
		c-1.696,2.841-4.276,4.799-6.05,7.562c1.729-0.217,2.136,0.889,2.42,2.118c0.248,1.155-0.644,1.171-1.21,1.512
		c1.169,1.694,2.506,3.466,1.21,6.051c2.579-0.158,4.641,0.199,5.748,1.512c0.17,4.507,0.052,8.724-4.236,8.773
		c-3.222,3.155-3.93,13.58-8.772,14.52c-1.266,0.246-2.331-1.197-3.933-0.302c0,1.21,0,2.42,0,3.63
		c-4.278,1.47-8.896,2.601-8.47,8.773c4.641-0.12,5.702,6.162,10.286,3.328c1.132,1.127,1.94,3.71,4.537,2.42
		c2.379,2.805,7.317,5.506,4.235,10.286c1.256,0.256,2.955,0.07,3.63,0.907c-0.458,3.181,0.845,4.601,2.42,5.748
		c0.106,3.428,0.448,5.676,0.605,8.471c3.172,2.273,7.537,3.353,10.285,6.05c-0.536,1.439,0.152,2.318-0.303,3.933
		c2.202,1.228,4.498,2.36,5.748,4.538c-0.814,1.606-3.137,1.703-3.025,4.235c0.383,0.726,2.386-0.167,2.723,0.605
		c1.12,2.381-0.502,3.784,0.605,6.353c0.586,1.361,2.567,1.733,2.723,3.328c0.249,2.571-4.033,10.626-5.748,12.101
		c-1.02,0.876-3.191,1.188-3.933,2.118c-0.705,1.413-1.413,2.822-2.118,4.235c-1.913,0.708-3.634,1.608-5.445,2.42
		c-0.243,1.572-0.248,3.382-0.908,4.538c-2.889,0.338-5.792,0.661-8.168,1.512c-0.362,3.974-0.379,8.292-1.815,11.193
		c3.291,2.457,7.551,3.944,6.656,10.587c-0.968,0.848-2.525,1.105-3.631,1.815c-1.512,3.161,2.443,3.698,3.025,5.748
		c0.786,2.766-0.911,6.623-0.605,10.285c-7.952-1.122-10.809,1.257-15.125,3.933c-2.225,1.379-4.692,3.545-6.655,3.631
		c-2.103,0.091-3.68-1.811-5.748-1.815c-3.714-0.009-6.174,2.689-10.588,3.327c3.443,4.403-2.478,10.946,0.907,13.916
		c0.537-1.178,1.201-2.228,2.723-2.42c1.294,1.024,2.928,1.71,3.63,3.328c-0.365,1.047-0.553,2.27-0.605,3.63
		c4.544,1.104,8.071,3.222,10.587,6.353c-3.499,6.983,5.692,6.817,6.353,12.403c-1.193,2.437-3.569,3.691-4.537,6.353
		c2.702,3.402,2.206,6.344,2.117,11.193C86.153,367.884,87.004,371.241,88.951,372.64z M280.742,230.764
		c2.365-0.147,1.798,2.638,2.42,4.235c1.667,0.349,3.314,0.72,4.84,1.21c-1.336-1.833,0.608-3.552-0.605-5.748
		C284.903,230.414,282.965,230.073,280.742,230.764z M529.708,273.114c0.194-1.607-0.38-2.444-1.212-3.025
		C528.863,271.279,528.08,272.726,529.708,273.114z M73.22,411.059c-0.767-2.359-1.406-4.846-3.025-6.353
		C69.177,407.257,69.565,411.433,73.22,411.059z M647.686,496.972C647.883,497.17,647.558,496.845,647.686,496.972L647.686,496.972z
		 M654.945,713.266c-0.185-0.175-1.436-0.709-1.512,0C651.878,714.74,655.75,715.7,654.945,713.266z M648.592,715.08
		c0.044-0.356,0.539-0.685,0-0.906C648.55,714.531,648.055,714.858,648.592,715.08z M579.621,720.223
		c0.852-0.849,1.157-5.037-0.303-5.445C578.011,715.393,577.812,720.023,579.621,720.223z M653.434,718.105
		c0.945,0.448,1.236,0.013,1.814-0.605C655.512,714.632,651.915,715.957,653.434,718.105z M574.176,720.223
		C577.442,716.584,570.267,717.372,574.176,720.223L574.176,720.223z M408.4,822.169c1.395-0.539,1.112-4.173,0.302-5.143
		c-0.302,0-0.604,0-0.907,0C407.169,818.305,406.597,821.722,408.4,822.169z"/>
	<path fill-rule="evenodd" clip-rule="evenodd" fill="#8F555B" d="M383.594,251.031c0.018-0.184,0.046-0.358,0.304-0.302
		c0,0.101,0,0.202,0,0.302C383.796,251.031,383.695,251.031,383.594,251.031z"/>
	<path fill-rule="evenodd" clip-rule="evenodd" fill="#A27379" d="M383.897,251.031c0-0.1,0-0.201,0-0.302c0.101,0,0.201,0,0.303,0
		c0,0.101,0,0.202,0,0.302C384.099,251.031,383.998,251.031,383.897,251.031z"/>
	<path fill-rule="evenodd" clip-rule="evenodd" fill="#BE9CA0" d="M384.2,251.031c0-0.1,0-0.201,0-0.302
		C384.367,250.728,384.543,250.974,384.2,251.031z"/>
	<path fill-rule="evenodd" clip-rule="evenodd" fill="#A27379" d="M383.293,251.334c0-0.101,0-0.202,0-0.303c0.1,0,0.2,0,0.301,0
		c0,0.101,0,0.202,0,0.303C383.493,251.334,383.393,251.334,383.293,251.334z"/>
	<path fill-rule="evenodd" clip-rule="evenodd" fill="#BE9CA0" d="M383.594,251.334c0-0.101,0-0.202,0-0.303
		c0.102,0,0.202,0,0.304,0c0,0.101,0,0.202,0,0.303C383.796,251.334,383.695,251.334,383.594,251.334z"/>
	<path fill-rule="evenodd" clip-rule="evenodd" fill="#BE9CA0" d="M382.99,251.636c0.017-0.184,0.045-0.358,0.303-0.302
		c0,0.101,0,0.202,0,0.302C383.191,251.636,383.091,251.636,382.99,251.636z"/>
	<path fill-rule="evenodd" clip-rule="evenodd" fill="#8F555B" d="M382.083,251.939c0.016-0.185,0.044-0.358,0.301-0.303
		c0,0.101,0,0.202,0,0.303C382.283,251.939,382.183,251.939,382.083,251.939z"/>
	<path fill-rule="evenodd" clip-rule="evenodd" fill="#A27379" d="M382.384,251.939c0-0.101,0-0.202,0-0.303
		c0.102,0,0.202,0,0.304,0C382.67,251.821,382.642,251.995,382.384,251.939z"/>
	<path fill-rule="evenodd" clip-rule="evenodd" fill="#BE9CA0" d="M382.083,252.242c0-0.101,0-0.202,0-0.303c0.1,0,0.2,0,0.301,0
		c0,0.101,0,0.202,0,0.303C382.283,252.242,382.183,252.242,382.083,252.242z"/>
	<path fill-rule="evenodd" clip-rule="evenodd" fill="#A27379" d="M88.951,372.64c0.017-0.185,0.045-0.358,0.303-0.303
		c0,0.504,0,1.009,0,1.513c-0.101,0-0.202,0-0.303,0C88.951,373.447,88.951,373.043,88.951,372.64z"/>
	<path fill-rule="evenodd" clip-rule="evenodd" fill="#8F555B" d="M88.951,373.85c0.101,0,0.202,0,0.303,0c0,0.202,0,0.403,0,0.605
		c-0.017,0.185-0.045,0.358-0.303,0.303C88.951,374.455,88.951,374.152,88.951,373.85z"/>
	<path fill-rule="evenodd" clip-rule="evenodd" fill="#BE9CA0" d="M605.635,557.473c0,0.102,0,0.202,0,0.304
		c0,0.101,0,0.201,0,0.303c-0.098,0-0.199,0-0.3,0C605.401,557.844,605.342,557.481,605.635,557.473z"/>
	<path fill-rule="evenodd" clip-rule="evenodd" fill="#8F555B" d="M605.635,557.776c0-0.102,0-0.202,0-0.304
		c0.102,0,0.202,0,0.303,0C605.921,557.658,605.894,557.831,605.635,557.776z"/>
	<path fill-rule="evenodd" clip-rule="evenodd" fill="#A27379" d="M605.335,558.079c0.101,0,0.202,0,0.3,0c0,0.2,0,0.402,0,0.604
		c-0.098,0-0.199,0-0.3,0C605.335,558.481,605.335,558.279,605.335,558.079z"/>
	<path fill-rule="evenodd" clip-rule="evenodd" fill="#8F555B" d="M605.335,558.684c0.101,0,0.202,0,0.3,0
		c-0.066,0.234-0.007,0.597-0.3,0.605C605.335,559.087,605.335,558.885,605.335,558.684z"/>
	<path fill-rule="evenodd" clip-rule="evenodd" fill="#BE9CA0" d="M605.032,559.59c0-0.101,0-0.201,0-0.301c0.101,0,0.201,0,0.303,0
		c0,0.101,0,0.2,0,0.301C605.233,559.59,605.133,559.59,605.032,559.59z"/>
	<path fill-rule="evenodd" clip-rule="evenodd" fill="#A27379" d="M605.032,559.894c0-0.102,0-0.202,0-0.304
		c0.101,0,0.201,0,0.303,0c0,0.102,0,0.202,0,0.304C605.233,559.894,605.133,559.894,605.032,559.894z"/>
	<path fill-rule="evenodd" clip-rule="evenodd" fill="#8F555B" d="M605.032,559.894c0.101,0,0.201,0,0.303,0
		c-0.069,0.234-0.01,0.597-0.303,0.605C605.032,560.297,605.032,560.095,605.032,559.894z"/>
	<path fill-rule="evenodd" clip-rule="evenodd" fill="#A27379" d="M241.718,647.318c0.017-0.185,0.045-0.356,0.303-0.303
		c0,0.102,0,0.202,0,0.303C241.919,647.318,241.819,647.318,241.718,647.318z"/>
	<path fill-rule="evenodd" clip-rule="evenodd" fill="#BE9CA0" d="M241.718,647.621c0-0.101,0-0.201,0-0.303
		c0.101,0,0.202,0,0.303,0c0,0.303,0,0.605,0,0.908c-0.052,0.453,0.108,1.115-0.303,1.209
		C241.718,648.833,241.718,648.227,241.718,647.621z"/>
	<path fill-rule="evenodd" clip-rule="evenodd" fill="#8F555B" d="M241.718,647.621c0,0.605,0,1.212,0,1.814
		c-0.101,0-0.202,0-0.302,0C241.589,648.904,241.05,647.658,241.718,647.621z"/>
	<path fill-rule="evenodd" clip-rule="evenodd" fill="#A27379" d="M241.718,650.041c0.185,0.018,0.358,0.045,0.303,0.303
		c0,0.202,0,0.404,0,0.606c-0.101,0-0.202,0-0.303,0C241.718,650.646,241.718,650.344,241.718,650.041z"/>
	<path fill-rule="evenodd" clip-rule="evenodd" fill="#8F555B" d="M241.718,650.95c0.101,0,0.202,0,0.303,0c0,0.101,0,0.201,0,0.303
		c0,0.201,0,0.401,0,0.603C241.668,651.807,241.692,651.378,241.718,650.95z"/>
	<path fill-rule="evenodd" clip-rule="evenodd" fill="#BE9CA0" d="M242.021,651.253c0.101,0,0.201,0,0.302,0
		c0,0.201,0,0.401,0,0.603c-0.101,0-0.201,0-0.302,0C242.021,651.654,242.021,651.454,242.021,651.253z"/>
	<path fill-rule="evenodd" clip-rule="evenodd" fill="#A27379" d="M242.021,651.855c0.101,0,0.201,0,0.302,0
		c0,0.202,0,0.404,0,0.605c-0.101,0-0.201,0-0.302,0C242.021,652.26,242.021,652.058,242.021,651.855z"/>
	<path fill-rule="evenodd" clip-rule="evenodd" fill="#8F555B" d="M242.021,652.461c0.101,0,0.201,0,0.302,0
		c0,0.202,0,0.404,0,0.605C242.087,653,241.971,652.813,242.021,652.461z"/>
	<path fill-rule="evenodd" clip-rule="evenodd" fill="#8F555B" d="M382.688,251.636c0.134-0.269,0.266-0.541,0.605-0.605
		c0,0.101,0,0.202,0,0.303c-0.258-0.056-0.286,0.118-0.303,0.302C382.889,251.636,382.788,251.636,382.688,251.636z"/>
	<path fill-rule="evenodd" clip-rule="evenodd" fill="#A27379" d="M381.478,252.242c0.244-0.058,0.301-0.304,0.605-0.303
		c0,0.101,0,0.202,0,0.303c-0.397,0.106-0.477,0.533-0.909,0.604C381.232,252.601,381.479,252.545,381.478,252.242z"/>
	<path fill-rule="evenodd" clip-rule="evenodd" fill="#8F555B" d="M379.661,254.056c0.478-0.732,1.084-1.337,1.816-1.814
		c0.001,0.303-0.245,0.359-0.304,0.604C380.472,253.051,380.364,253.852,379.661,254.056z"/>
	<path fill-rule="evenodd" clip-rule="evenodd" fill="#BE9CA0" d="M379.661,254.056c0.703-0.204,0.811-1.005,1.513-1.21
		c-0.204,0.703-1.004,0.81-1.21,1.513C379.707,254.415,379.679,254.241,379.661,254.056z"/>
</g>
</svg>
